<svg xmlns="http://www.w3.org/2000/svg">
	<symbol id="crossed-eye" viewBox="0 0 24 24" fill="inherit">
		<path
			d="M4.707 3.293a1 1 0 0 0-1.414 1.414l2.424 2.424c-1.43 1.076-2.678 2.554-3.611 4.422a1 1 0 0 0 0 .894C4.264 16.764 8.096 19 12 19c1.555 0 3.1-.355 4.53-1.055l2.763 2.762a1 1 0 0 0 1.414-1.414l-16-16zm10.307 13.135c-.98.383-2 .572-3.014.572-2.969 0-6.002-1.62-7.87-5 .817-1.479 1.858-2.62 3.018-3.437l2.144 2.144a3 3 0 0 0 4.001 4.001l1.72 1.72zm3.538-2.532c.483-.556.926-1.187 1.318-1.896-1.868-3.38-4.9-5-7.87-5-.112 0-.224.002-.336.007L9.879 5.223A10.215 10.215 0 0 1 12 5c3.903 0 7.736 2.236 9.894 6.553a1 1 0 0 1 0 .894 13.106 13.106 0 0 1-1.925 2.865l-1.417-1.416z" />
	</symbol>
	<symbol id="eye" viewBox="0 0 24 24" fill="inherit">
		<path
			fill-rule="evenodd"
			clip-rule="evenodd"
			d="M6.30147 15.5771C4.77832 14.2684 3.6904 12.7726 3.18002 12C3.6904 11.2274 4.77832 9.73158 6.30147 8.42294C7.87402 7.07185 9.81574 6 12 6C14.1843 6 16.1261 7.07185 17.6986 8.42294C19.2218 9.73158 20.3097 11.2274 20.8201 12C20.3097 12.7726 19.2218 14.2684 17.6986 15.5771C16.1261 16.9282 14.1843 18 12 18C9.81574 18 7.87402 16.9282 6.30147 15.5771ZM12 4C9.14754 4 6.75717 5.39462 4.99812 6.90595C3.23268 8.42276 2.00757 10.1376 1.46387 10.9698C1.05306 11.5985 1.05306 12.4015 1.46387 13.0302C2.00757 13.8624 3.23268 15.5772 4.99812 17.0941C6.75717 18.6054 9.14754 20 12 20C14.8525 20 17.2429 18.6054 19.002 17.0941C20.7674 15.5772 21.9925 13.8624 22.5362 13.0302C22.947 12.4015 22.947 11.5985 22.5362 10.9698C21.9925 10.1376 20.7674 8.42276 19.002 6.90595C17.2429 5.39462 14.8525 4 12 4ZM10 12C10 10.8954 10.8955 10 12 10C13.1046 10 14 10.8954 14 12C14 13.1046 13.1046 14 12 14C10.8955 14 10 13.1046 10 12ZM12 8C9.7909 8 8.00004 9.79086 8.00004 12C8.00004 14.2091 9.7909 16 12 16C14.2092 16 16 14.2091 16 12C16 9.79086 14.2092 8 12 8Z" />
	</symbol>
	<symbol id="facebook" viewBox="0 0 32 32" fill="inherit">
		<path
			d="M30.996 16.091c-0.001-8.281-6.714-14.994-14.996-14.994s-14.996 6.714-14.996 14.996c0 7.455 5.44 13.639 12.566 14.8l0.086 0.012v-10.478h-3.808v-4.336h3.808v-3.302c-0.019-0.167-0.029-0.361-0.029-0.557 0-2.923 2.37-5.293 5.293-5.293 0.141 0 0.281 0.006 0.42 0.016l-0.018-0.001c1.199 0.017 2.359 0.123 3.491 0.312l-0.134-0.019v3.69h-1.892c-0.086-0.012-0.185-0.019-0.285-0.019-1.197 0-2.168 0.97-2.168 2.168 0 0.068 0.003 0.135 0.009 0.202l-0.001-0.009v2.812h4.159l-0.665 4.336h-3.494v10.478c7.213-1.174 12.653-7.359 12.654-14.814v-0z"></path>
	</symbol>
	<symbol id="google" viewBox="-0.5 0 48 48" fill="inherit">
		<g
			id="Icons"
			stroke="none"
			stroke-width="1"
			fill="none"
			fill-rule="evenodd">
			<g id="Color-" transform="translate(-401.000000, -860.000000)">
				<g id="Google" transform="translate(401.000000, 860.000000)">
					<path
						d="M9.82727273,24 C9.82727273,22.4757333 10.0804318,21.0144 10.5322727,19.6437333 L2.62345455,13.6042667 C1.08206818,16.7338667 0.213636364,20.2602667 0.213636364,24 C0.213636364,27.7365333 1.081,31.2608 2.62025,34.3882667 L10.5247955,28.3370667 C10.0772273,26.9728 9.82727273,25.5168 9.82727273,24"
						id="Fill-1"
						fill="#FBBC05"></path>
					<path
						d="M23.7136364,10.1333333 C27.025,10.1333333 30.0159091,11.3066667 32.3659091,13.2266667 L39.2022727,6.4 C35.0363636,2.77333333 29.6954545,0.533333333 23.7136364,0.533333333 C14.4268636,0.533333333 6.44540909,5.84426667 2.62345455,13.6042667 L10.5322727,19.6437333 C12.3545909,14.112 17.5491591,10.1333333 23.7136364,10.1333333"
						id="Fill-2"
						fill="#EB4335"></path>
					<path
						d="M23.7136364,37.8666667 C17.5491591,37.8666667 12.3545909,33.888 10.5322727,28.3562667 L2.62345455,34.3946667 C6.44540909,42.1557333 14.4268636,47.4666667 23.7136364,47.4666667 C29.4455,47.4666667 34.9177955,45.4314667 39.0249545,41.6181333 L31.5177727,35.8144 C29.3995682,37.1488 26.7323182,37.8666667 23.7136364,37.8666667"
						id="Fill-3"
						fill="#34A853"></path>
					<path
						d="M46.1454545,24 C46.1454545,22.6133333 45.9318182,21.12 45.6113636,19.7333333 L23.7136364,19.7333333 L23.7136364,28.8 L36.3181818,28.8 C35.6879545,31.8912 33.9724545,34.2677333 31.5177727,35.8144 L39.0249545,41.6181333 C43.3393409,37.6138667 46.1454545,31.6490667 46.1454545,24"
						id="Fill-4"
						fill="#4285F4"></path>
				</g>
			</g>
		</g>
	</symbol>
</svg>
